<svg xmlns="http://www.w3.org/2000/svg" viewBox="0 0 460.69 496.78">
  <path d="M314.25,58.33c-9.11-9.56-14.93-14.08-26.15-19.49A31.08,31.08,0,1,0,285.7,51c7.25,3.69,13.55,8.43,20.61,16.29,60.95,67.85,75.25,210,44.19,318.15q-.63,2.22-1.29,4.41A6.22,6.22,0,0,0,361,392l.57-1.82C390.94,293.19,383.52,131,314.25,58.33Zm-57.25.5A19.83,19.83,0,1,1,276.83,39,19.83,19.83,0,0,1,257,58.83ZM336,445a6.16,6.16,0,0,1-.12,1.22v0c-.53,1-1.08,2-1.64,3h0c-18.17,32.32-46.27,56.17-80.8,55.38-39.41-.9-78.49-51.79-94.77-98.75-.45-1.26-.87-2.53-1.28-3.78A6,6,0,0,1,169,400c.08.32.18.65.29,1v0c12.8,42,48.33,90.1,84.15,90.92,30.43.7,55.1-20.51,70.84-49,.29-.5.56-1,.83-1.52A6,6,0,0,1,336,445Zm76-21.91c12.85-3.05,19.68-5.8,30-12.76a31.08,31.08,0,1,0-9.29-8.2c-6.84,4.4-14.11,7.45-24.46,9.58C319,430.16,189,370.87,111.24,289.51q-1.6-1.67-3.16-3.34a6.22,6.22,0,0,0-7.8,9.09l1.29,1.41C170.52,370.94,314.32,446.28,412,423.1Zm28.43-49.7a19.83,19.83,0,1,1,7.13,27.12A19.83,19.83,0,0,1,440.45,373.4ZM67.11,246.93a6.37,6.37,0,0,1-1-.71l0,0c-.61-1-1.2-1.95-1.77-2.93v0c-18.75-32-25.18-68.27-7.09-97.7,20.64-33.58,84.29-41.68,133.05-32.06,1.32.24,2.63.52,3.91.8a6,6,0,0,1-4.05,11.13q-.48-.14-1-.24h0C146.41,115,87,121.48,68.19,152c-15.95,25.93-10.07,57.93,6.62,85.89.29.5.59,1,.9,1.48a6,6,0,0,1-8.6,7.56ZM47,326.38c-3.68,12.69-4.66,20-3.7,32.41a31.08,31.08,0,1,0,11.72-4c-.46-8.12.47-15.95,3.72-26,28-86.8,143.62-170.64,252.75-198.21,1.49-.38,3-.74,4.46-1.1a6.21,6.21,0,0,0-4.06-11.26l-1.86.42C211.43,142,75,230,47,326.38Zm29.22,49.24a19.83,19.83,0,1,1-27.11-7.17A19.83,19.83,0,0,1,76.23,375.62ZM370.3,113.13a6.93,6.93,0,0,1,1.11-.51h0c1.14-.05,2.29-.09,3.43-.1h0c37.08-.55,71.82,11.75,88.51,42,19,34.51-5.29,93.89-37.69,131.58-.86,1-1.75,2-2.62,3a6,6,0,0,1-7.69-9c.24-.23.47-.49.69-.74l0,0c29.85-32.18,53.57-87.09,36.26-118.46-14.7-26.65-45.44-37.31-78-36.57-.58,0-1.15,0-1.73,0a6,6,0,0,1-2.34-11.21ZM279.45,269.42A22.45,22.45,0,1,1,257,247,22.45,22.45,0,0,1,279.45,269.42Z" transform="translate(-27.99 -7.9)"/>
</svg>
