<svg xmlns="http://www.w3.org/2000/svg" viewBox="0 0 440.04 471.97">
  <g>
    <path d="M256,9.64a55.91,55.91,0,0,0-15.47,109.64v49.29h30.94V119.28A55.91,55.91,0,0,0,256,9.64Zm0,81.53a24.62,24.62,0,1,1,24.62-24.62A24.62,24.62,0,0,1,256,91.17Z" transform="translate(-37.29 -9.64)" fill="#cf5a4a"/>
    <path d="M274.3,194.1H231.56c-95,0-194.27,37.58-194.27,97.54V401.47c0,49.86,64.26,80.14,102.84,80.14H374.49c33.38,0,102.84-27.9,102.84-88.45V296.94C477.33,240.14,394.22,197.25,274.3,194.1ZM444.83,298.71V397c0,51.39-122.43,69.7-151,69.7h-76c-33,0-149.64-22-149.64-67.22V294.26c0-47.26,108-68.77,166.27-68.77h36.58C332.72,225.49,447.12,245.62,444.83,298.71Z" transform="translate(-37.29 -9.64)"/>
    <path d="M177.24,289.88a55.31,55.31,0,1,0,55.3,55.3A55.3,55.3,0,0,0,177.24,289.88Zm0,80.05a23.86,23.86,0,1,1,23.86-23.86A23.87,23.87,0,0,1,177.24,369.93Z" transform="translate(-37.29 -9.64)"/>
    <path d="M335.66,289.88a55.31,55.31,0,1,0,55.3,55.3A55.3,55.3,0,0,0,335.66,289.88Zm0,80.05a23.86,23.86,0,1,1,23.86-23.86A23.86,23.86,0,0,1,335.66,369.93Z" transform="translate(-37.29 -9.64)"/>
  </g>
</svg>
