<svg xmlns="http://www.w3.org/2000/svg" viewBox="0 0 385.23 485.05">
  <g>
    <path d="M409.53,351.76c-.48,0-.95,0-1.42,0-5.89-15.65-20.78-58.22-21.32-90.08A168.61,168.61,0,1,0,102.68,264C96.1,311.34,83.39,342.11,79,351.81c-.52,0-1-.05-1.58-.05a26.53,26.53,0,1,0,19.67,8.73c3.86-8.11,18.16-39.86,23-74.17a169,169,0,0,0,35.52,29.28v93a26.54,26.54,0,1,0,20.23.39V326.26a167.84,167.84,0,0,0,57.47,14v97.07a26.53,26.53,0,1,0,20.32,0v-97a167.67,167.67,0,0,0,58.58-14.08v82.14a26.54,26.54,0,1,0,17.61-.17v-91a169.13,169.13,0,0,0,39.53-32.39c3.16,33.24,16.25,64.29,21.18,75a26.53,26.53,0,1,0,19-8.07ZM77.38,391.24a13,13,0,1,1,13-12.95A13,13,0,0,1,77.38,391.24Zm100.79,42.12a13,13,0,1,1-13-12.95A13,13,0,0,1,178.17,433.36Zm78.16,28.53a12.95,12.95,0,1,1-12.95-12.95A13,13,0,0,1,256.33,461.89Zm77.84-28.53a12.95,12.95,0,1,1-12.95-12.95A12.95,12.95,0,0,1,334.17,433.36ZM244,308A136,136,0,1,1,380,172,136,136,0,0,1,244,308Zm165.54,83.23a13,13,0,1,1,13-12.95A13,13,0,0,1,409.53,391.24Z" transform="translate(-50.84 -3.38)" fill="#83cb9d"/>
    <g>
      <path d="M193.49,123.7H156.91l-30.47,96.42H154l5.58-18.76h30.27l5.85,18.76h29.5Zm-29.28,56.73c3.91-13.88,7.6-27.63,9.83-38h.39c2.18,9.4,5.89,22.87,10.42,38Z" transform="translate(-50.84 -3.38)" fill="#55ba6d"/>
      <path d="M280,123.7H235.28v96.42h27.89V186.26H279.3c20.41,0,37-10,37-31.63C316.34,135.8,301.71,123.7,280,123.7Zm-5.27,42.67H263.17V143.54h11.6c7.87,0,13.59,3.22,13.59,11.46C288.36,163,282.68,166.37,274.69,166.37Z" transform="translate(-50.84 -3.38)" fill="#55ba6d"/>
      <rect x="278.94" y="120.32" width="28.34" height="96.42" fill="#55ba6d"/>
    </g>
  </g>
</svg>
