<svg id="e97dd5e0-1d24-4b94-b8bb-fdc1d64f95e4" data-name="Layer 1" xmlns="http://www.w3.org/2000/svg" viewBox="0 0 495.99 495.97"><path d="M131.5,217.5,55.1,100.1c47.6-59.2,119-91.8,192-92.1A248,248,0,0,1,469.3,144.2L264,133.4C205.9,130,150.6,162.7,131.5,217.5Z" transform="translate(0 -7.99)" style="fill:none"/><circle cx="248" cy="248.01" r="83.6" style="fill:none"/><path d="M479.3,166.8,339.6,174c37.9,44.3,38.5,108.2,6.6,157.2L234.1,503.6a247,247,0,0,0,137.8-32.9c107.4-62,150.9-192,107.4-303.9Z" transform="translate(0 -7.99)" style="fill:none"/><path d="M133.7,303.6,40.4,120.1A247.82,247.82,0,0,0,0,256C0,380,90.8,482.7,209.5,500.9l63.7-124.8c-57.6,10.8-113.2-20.8-139.5-72.5Z" transform="translate(0 -7.99)" style="fill:none"/></svg>